normalP042_grf.mot
version=1
nRows=17
nColumns=19
inDegrees=yes
endheader
time	1_ground_force_vx	1_ground_force_vy	1_ground_force_vz	1_ground_force_px	1_ground_force_py	1_ground_force_pz	1_ground_torque_x	1_ground_torque_y	1_ground_torque_z	2_ground_force_vx	2_ground_force_vy	2_ground_force_vz	2_ground_force_px	2_ground_force_py	2_ground_force_pz	2_ground_torque_x	2_ground_torque_y	2_ground_torque_z
            2.155000	           -0.129919	            0.561358	           -0.225056	            0.501801	            0.002287	           -0.356307	           -0.033060	           -0.019258	            0.015220	          -32.754852	          565.818315	          -29.374165	            1.031477	            0.000645	           -0.237068	           -0.021799	            0.376572	           -0.019550
            2.156000	           -0.182592	            0.801143	           -0.216601	            0.501801	            0.002287	           -0.356307	            0.050434	           -0.016656	           -0.005680	          -32.429879	          564.377254	          -29.318115	            1.031875	            0.000643	           -0.236854	           -0.023035	            0.400877	           -0.020825
            2.157000	           -0.169866	            0.162595	           -0.249221	            0.501801	            0.002287	           -0.356307	           -0.016104	           -0.002029	           -0.005175	          -32.074966	          562.696008	          -29.201702	            1.032512	            0.000640	           -0.236719	           -0.022792	            0.399845	           -0.020750
            2.158000	           -0.191225	            0.561841	           -0.217351	            0.501801	            0.002287	           -0.356307	            0.033815	           -0.011703	           -0.026224	          -31.790113	          560.694543	          -29.094065	            1.033521	            0.000636	           -0.236575	           -0.022227	            0.392024	           -0.020342
            2.159000	           -0.169249	            0.322313	           -0.210485	            0.501801	            0.002287	           -0.356307	            0.050622	           -0.009014	           -0.005352	          -31.401416	          559.972632	          -28.996924	            1.033874	            0.000634	           -0.236468	           -0.023333	            0.416086	           -0.021546
            2.160000	           -0.181218	            1.199703	           -0.200067	            0.501801	            0.002287	           -0.356307	           -0.033140	           -0.008157	           -0.026542	          -31.141132	          557.492436	          -28.891243	            1.034482	            0.000631	           -0.236188	           -0.023018	            0.412066	           -0.021355
            2.161000	           -0.153738	            0.401004	           -0.233268	            0.501801	            0.002287	           -0.356307	            0.067644	           -0.012819	            0.056903	          -30.790763	          556.770307	          -28.801961	            1.034985	            0.000629	           -0.236077	           -0.022801	            0.412298	           -0.021328
            2.162000	           -0.163496	           -0.157414	           -0.235009	            0.501801	            0.002287	           -0.356307	            0.084494	           -0.013786	            0.077943	          -30.423639	          554.130205	          -28.689064	            1.035939	            0.000626	           -0.236031	           -0.021972	            0.400191	           -0.020719
            2.163000	           -0.168708	            0.480943	           -0.210022	            0.501801	            0.002287	           -0.356307	            0.050819	           -0.010813	            0.077538	          -30.081755	          553.168586	          -28.608506	            1.036242	            0.000624	           -0.235822	           -0.022131	            0.406958	           -0.021047
            2.164000	           -0.162089	            0.242235	           -0.226117	            0.501801	            0.002287	           -0.356307	            0.067471	           -0.006638	            0.015466	          -29.770719	          552.126601	          -28.451025	            1.036829	            0.000622	           -0.235702	           -0.022857	            0.423909	           -0.021844
            2.165000	           -0.146819	            0.241672	           -0.218507	            0.501801	            0.002287	           -0.356307	            0.101039	           -0.009663	            0.056952	          -29.484017	          550.685847	          -28.326225	            1.037398	            0.000620	           -0.235658	           -0.021685	            0.405021	           -0.020833
            2.166000	           -0.176882	            0.401802	           -0.225618	            0.501801	            0.002287	           -0.356307	            0.033973	           -0.000973	            0.056813	          -29.174301	          549.243593	          -28.162538	            1.038049	            0.000617	           -0.235373	           -0.022925	            0.431593	           -0.022130
            2.167000	           -0.177481	            0.241661	           -0.203186	            0.501801	            0.002287	           -0.356307	            0.000640	           -0.007071	            0.139812	          -28.843184	          547.323627	          -28.054783	            1.038665	            0.000615	           -0.235376	           -0.022264	            0.422475	           -0.021655
            2.168000	           -0.169846	            0.242339	           -0.203211	            0.501801	            0.002287	           -0.356307	            0.067453	           -0.009183	           -0.025981	          -28.433223	          546.040250	          -27.844588	            1.039588	            0.000611	           -0.235153	           -0.022230	            0.426917	           -0.021770
            2.169000	           -0.185349	            0.161884	           -0.203472	            0.501801	            0.002287	           -0.356307	            0.017403	           -0.022931	            0.077693	          -27.831584	          544.759238	          -27.688555	            1.039824	            0.000610	           -0.235174	           -0.021182	            0.414594	           -0.021073
            2.170000	           -0.132995	           -0.077011	           -0.242608	            0.501801	            0.002287	           -0.356307	            0.067515	           -0.012167	            0.057067	          -27.497066	          543.876500	          -27.561348	            1.040541	            0.000607	           -0.234993	           -0.021519	            0.425640	           -0.021570
            2.171000	           -0.148210	           -0.077757	           -0.265495	            0.501801	            0.002287	           -0.356307	            0.101255	           -0.008135	            0.098646	          -27.425387	          542.356321	          -27.567014	            1.041264	            0.000604	           -0.234853	           -0.021151	            0.418279	           -0.021260
